<mxfile host="Electron" modified="2025-08-21T10:05:18.668Z" agent="Mozilla/5.0 (Windows NT 10.0; Win64; x64) AppleWebKit/537.36 (KHTML, like Gecko) draw.io/21.7.5 Chrome/114.0.5735.289 Electron/25.8.1 Safari/537.36" etag="Aq12VomAJfk6fzA3B0qn" version="21.7.5" type="device">
  <diagram name="ページ1" id="PmnMEiedi1nfhbx48ZEu">
    <mxGraphModel dx="1434" dy="844" grid="1" gridSize="10" guides="0" tooltips="1" connect="1" arrows="1" fold="1" page="1" pageScale="1" pageWidth="1169" pageHeight="827" math="0" shadow="0">
      <root>
        <mxCell id="0" />
        <mxCell id="1" parent="0" />
        <mxCell id="sbP9O8HD0FoWGV81-NIt-14" value="cmd.&lt;font style=&quot;border-color: var(--border-color);&quot; color=&quot;#ad9c68&quot;&gt;DrawRendererList&lt;/font&gt;(..);" style="rounded=1;whiteSpace=wrap;html=1;fillColor=#e1d5e7;strokeColor=#9673a6;sketch=1;strokeWidth=2;shadow=0;fontFamily=UD デジタル 教科書体 NK-B;fontSize=16;arcSize=4;verticalAlign=top;" parent="1" vertex="1">
          <mxGeometry x="530" y="532" width="440" height="310" as="geometry" />
        </mxCell>
        <mxCell id="FsoMMtfHhLz3N644Kt1Y-4" value="" style="group" parent="1" vertex="1" connectable="0">
          <mxGeometry x="50" y="110" width="200" height="130" as="geometry" />
        </mxCell>
        <mxCell id="FsoMMtfHhLz3N644Kt1Y-2" value="" style="rounded=1;whiteSpace=wrap;html=1;fillColor=#d5e8d4;strokeColor=#82b366;sketch=1;strokeWidth=2;shadow=0;fontFamily=UD デジタル 教科書体 NK-B;fontSize=16;" parent="FsoMMtfHhLz3N644Kt1Y-4" vertex="1">
          <mxGeometry x="10" y="6.5" width="180" height="116.99999999999999" as="geometry" />
        </mxCell>
        <mxCell id="FsoMMtfHhLz3N644Kt1Y-3" value="" style="rounded=1;whiteSpace=wrap;html=1;fillColor=#d5e8d4;strokeColor=#82b366;sketch=1;strokeWidth=2;shadow=0;fontFamily=UD デジタル 教科書体 NK-B;fontSize=16;" parent="FsoMMtfHhLz3N644Kt1Y-4" vertex="1">
          <mxGeometry x="20" y="13" width="180" height="116.99999999999999" as="geometry" />
        </mxCell>
        <mxCell id="FsoMMtfHhLz3N644Kt1Y-1" value="&lt;p style=&quot;line-height: 110%;&quot;&gt;&lt;font style=&quot;&quot;&gt;&lt;span style=&quot;font-size: 24px;&quot;&gt;cameraStack&lt;/span&gt;&lt;br&gt;&lt;font style=&quot;font-size: 18px;&quot;&gt;(Renderer)&lt;/font&gt;&lt;br&gt;&lt;/font&gt;&lt;/p&gt;" style="rounded=1;whiteSpace=wrap;html=1;fillColor=#d5e8d4;strokeColor=#82b366;sketch=1;strokeWidth=2;shadow=0;fontFamily=UD デジタル 教科書体 NK-B;fontSize=16;" parent="FsoMMtfHhLz3N644Kt1Y-4" vertex="1">
          <mxGeometry width="180" height="116.99999999999999" as="geometry" />
        </mxCell>
        <mxCell id="FsoMMtfHhLz3N644Kt1Y-5" value="" style="group" parent="1" vertex="1" connectable="0">
          <mxGeometry x="360" y="110" width="430" height="220" as="geometry" />
        </mxCell>
        <mxCell id="FsoMMtfHhLz3N644Kt1Y-6" value="" style="rounded=1;whiteSpace=wrap;html=1;fillColor=#d5e8d4;strokeColor=#82b366;sketch=1;strokeWidth=2;shadow=0;fontFamily=UD デジタル 教科書体 NK-B;fontSize=16;" parent="FsoMMtfHhLz3N644Kt1Y-5" vertex="1">
          <mxGeometry y="6.5" width="180" height="117" as="geometry" />
        </mxCell>
        <mxCell id="FsoMMtfHhLz3N644Kt1Y-7" value="" style="rounded=1;whiteSpace=wrap;html=1;fillColor=#d5e8d4;strokeColor=#82b366;sketch=1;strokeWidth=2;shadow=0;fontFamily=UD デジタル 教科書体 NK-B;fontSize=16;" parent="FsoMMtfHhLz3N644Kt1Y-5" vertex="1">
          <mxGeometry x="10" y="13" width="180" height="117" as="geometry" />
        </mxCell>
        <mxCell id="FsoMMtfHhLz3N644Kt1Y-8" value="&lt;p style=&quot;line-height: 110%;&quot;&gt;&lt;font style=&quot;&quot;&gt;&lt;span style=&quot;font-size: 24px;&quot;&gt;cameraStack&lt;/span&gt;&lt;br&gt;&lt;font style=&quot;font-size: 18px;&quot;&gt;(Renderer)&lt;/font&gt;&lt;br&gt;&lt;/font&gt;&lt;/p&gt;" style="rounded=1;whiteSpace=wrap;html=1;fillColor=#d5e8d4;strokeColor=#82b366;sketch=1;strokeWidth=2;shadow=0;fontFamily=UD デジタル 教科書体 NK-B;fontSize=16;" parent="FsoMMtfHhLz3N644Kt1Y-5" vertex="1">
          <mxGeometry x="-10" width="180" height="117" as="geometry" />
        </mxCell>
        <mxCell id="FsoMMtfHhLz3N644Kt1Y-15" value="" style="rounded=1;whiteSpace=wrap;html=1;fillColor=none;strokeColor=#82b366;sketch=1;strokeWidth=2;shadow=0;fontFamily=UD デジタル 教科書体 NK-B;fontSize=16;arcSize=7;" parent="FsoMMtfHhLz3N644Kt1Y-5" vertex="1">
          <mxGeometry x="-340" y="-90" width="760" height="230" as="geometry" />
        </mxCell>
        <mxCell id="FsoMMtfHhLz3N644Kt1Y-9" value="" style="shape=flexArrow;endArrow=classic;html=1;rounded=1;shadow=0;sketch=0;fontFamily=UD デジタル 教科書体 NK-B;fontSize=16;fontColor=default;strokeColor=#616161;strokeWidth=2;endWidth=51;endSize=11;width=34;" parent="1" edge="1">
          <mxGeometry width="50" height="50" relative="1" as="geometry">
            <mxPoint x="270" y="180" as="sourcePoint" />
            <mxPoint x="340" y="180" as="targetPoint" />
          </mxGeometry>
        </mxCell>
        <mxCell id="FsoMMtfHhLz3N644Kt1Y-10" value="" style="shape=flexArrow;endArrow=classic;html=1;rounded=1;shadow=0;sketch=0;fontFamily=UD デジタル 教科書体 NK-B;fontSize=16;fontColor=default;strokeColor=#616161;strokeWidth=2;endWidth=51;endSize=11;width=34;" parent="1" edge="1">
          <mxGeometry width="50" height="50" relative="1" as="geometry">
            <mxPoint x="570" y="179.5" as="sourcePoint" />
            <mxPoint x="640" y="179.5" as="targetPoint" />
          </mxGeometry>
        </mxCell>
        <mxCell id="FsoMMtfHhLz3N644Kt1Y-11" value="&lt;font color=&quot;#616161&quot; style=&quot;font-size: 100px;&quot; face=&quot;UD デジタル 教科書体 NK-B&quot;&gt;..&lt;/font&gt;" style="text;html=1;align=center;verticalAlign=middle;resizable=0;points=[];autosize=1;strokeColor=none;fillColor=none;" parent="1" vertex="1">
          <mxGeometry x="649" y="94" width="100" height="130" as="geometry" />
        </mxCell>
        <mxCell id="FsoMMtfHhLz3N644Kt1Y-12" value="&lt;p style=&quot;line-height: 110%;&quot;&gt;&lt;font face=&quot;UD デジタル 教科書体 NK-B&quot;&gt;&lt;font style=&quot;font-size: 20px;&quot;&gt;Camera.depth&lt;/font&gt;&lt;br&gt;(CameraRenderType.Base)&lt;/font&gt;&lt;/p&gt;" style="text;html=1;align=center;verticalAlign=middle;resizable=0;points=[];autosize=1;strokeColor=none;fillColor=none;" parent="1" vertex="1">
          <mxGeometry x="50" y="55" width="190" height="70" as="geometry" />
        </mxCell>
        <mxCell id="FsoMMtfHhLz3N644Kt1Y-13" value="&lt;p style=&quot;line-height: 110%;&quot;&gt;&lt;font face=&quot;UD デジタル 教科書体 NK-B&quot;&gt;&lt;font style=&quot;font-size: 20px;&quot;&gt;Camera.depth&lt;/font&gt;&lt;br&gt;(CameraRenderType.Base)&lt;/font&gt;&lt;/p&gt;" style="text;html=1;align=center;verticalAlign=middle;resizable=0;points=[];autosize=1;strokeColor=none;fillColor=none;" parent="1" vertex="1">
          <mxGeometry x="350" y="55" width="190" height="70" as="geometry" />
        </mxCell>
        <mxCell id="FsoMMtfHhLz3N644Kt1Y-16" value="&lt;font style=&quot;font-size: 24px;&quot;&gt;Camera&lt;/font&gt;" style="rounded=1;whiteSpace=wrap;html=1;fillColor=#d5e8d4;strokeColor=#82b366;sketch=1;strokeWidth=2;shadow=0;fontFamily=UD デジタル 教科書体 NK-B;fontSize=16;arcSize=50;" parent="1" vertex="1">
          <mxGeometry x="20" y="20" width="130" height="40" as="geometry" />
        </mxCell>
        <mxCell id="FsoMMtfHhLz3N644Kt1Y-148" value="" style="endArrow=classic;html=1;shadow=0;sketch=0;fontFamily=UD デジタル 教科書体 NK-B;fontSize=16;fontColor=default;strokeColor=#616161;strokeWidth=1;curved=1;" parent="1" edge="1">
          <mxGeometry width="50" height="50" relative="1" as="geometry">
            <mxPoint x="138" y="183" as="sourcePoint" />
            <mxPoint x="42" y="280" as="targetPoint" />
            <Array as="points">
              <mxPoint x="120" y="220" />
              <mxPoint x="50" y="240" />
            </Array>
          </mxGeometry>
        </mxCell>
        <mxCell id="FsoMMtfHhLz3N644Kt1Y-149" value="" style="endArrow=classic;html=1;shadow=0;sketch=0;fontFamily=UD デジタル 教科書体 NK-B;fontSize=16;fontColor=default;strokeColor=#616161;strokeWidth=1;curved=1;" parent="1" edge="1">
          <mxGeometry width="50" height="50" relative="1" as="geometry">
            <mxPoint x="668" y="498" as="sourcePoint" />
            <mxPoint x="668" y="542" as="targetPoint" />
            <Array as="points">
              <mxPoint x="660" y="522" />
            </Array>
          </mxGeometry>
        </mxCell>
        <mxCell id="FsoMMtfHhLz3N644Kt1Y-74" value="" style="rounded=1;whiteSpace=wrap;html=1;fillColor=#dae8fc;strokeColor=none;sketch=1;strokeWidth=2;shadow=0;fontFamily=UD デジタル 教科書体 NK-B;fontSize=16;arcSize=0;" parent="1" vertex="1">
          <mxGeometry x="120" y="570" width="40" height="20" as="geometry" />
        </mxCell>
        <mxCell id="FsoMMtfHhLz3N644Kt1Y-71" value="" style="rounded=1;whiteSpace=wrap;html=1;fillColor=#dae8fc;strokeColor=none;sketch=1;strokeWidth=2;shadow=0;fontFamily=UD デジタル 教科書体 NK-B;fontSize=16;arcSize=0;" parent="1" vertex="1">
          <mxGeometry x="220" y="510" width="40" height="20" as="geometry" />
        </mxCell>
        <mxCell id="FsoMMtfHhLz3N644Kt1Y-68" value="" style="rounded=1;whiteSpace=wrap;html=1;fillColor=#dae8fc;strokeColor=none;sketch=1;strokeWidth=2;shadow=0;fontFamily=UD デジタル 教科書体 NK-B;fontSize=16;arcSize=0;" parent="1" vertex="1">
          <mxGeometry x="220" y="450" width="40" height="20" as="geometry" />
        </mxCell>
        <mxCell id="FsoMMtfHhLz3N644Kt1Y-65" value="" style="rounded=1;whiteSpace=wrap;html=1;fillColor=#dae8fc;strokeColor=none;sketch=1;strokeWidth=2;shadow=0;fontFamily=UD デジタル 教科書体 NK-B;fontSize=16;arcSize=0;" parent="1" vertex="1">
          <mxGeometry x="60" y="450" width="40" height="20" as="geometry" />
        </mxCell>
        <mxCell id="FsoMMtfHhLz3N644Kt1Y-54" value="" style="rounded=1;whiteSpace=wrap;html=1;fillColor=#dae8fc;strokeColor=none;sketch=1;strokeWidth=2;shadow=0;fontFamily=UD デジタル 教科書体 NK-B;fontSize=16;arcSize=0;" parent="1" vertex="1">
          <mxGeometry x="120" y="390" width="40" height="20" as="geometry" />
        </mxCell>
        <mxCell id="FsoMMtfHhLz3N644Kt1Y-55" value="" style="rounded=1;whiteSpace=wrap;html=1;fillColor=#DAE8FC;strokeColor=none;sketch=1;strokeWidth=2;shadow=0;fontFamily=UD デジタル 教科書体 NK-B;fontSize=16;arcSize=0;" parent="1" vertex="1">
          <mxGeometry x="40" y="330" width="40" height="80" as="geometry" />
        </mxCell>
        <mxCell id="FsoMMtfHhLz3N644Kt1Y-53" value="" style="rounded=1;whiteSpace=wrap;html=1;fillColor=#dae8fc;strokeColor=none;sketch=1;strokeWidth=2;shadow=0;fontFamily=UD デジタル 教科書体 NK-B;fontSize=16;arcSize=0;" parent="1" vertex="1">
          <mxGeometry x="120" y="330" width="40" height="20" as="geometry" />
        </mxCell>
        <mxCell id="FsoMMtfHhLz3N644Kt1Y-30" value="" style="group" parent="1" vertex="1" connectable="0">
          <mxGeometry x="60" y="340" width="240" height="241" as="geometry" />
        </mxCell>
        <mxCell id="FsoMMtfHhLz3N644Kt1Y-52" value="" style="rounded=1;whiteSpace=wrap;html=1;fillColor=#dae8fc;strokeColor=none;sketch=1;strokeWidth=2;shadow=0;fontFamily=UD デジタル 教科書体 NK-B;fontSize=16;arcSize=0;" parent="FsoMMtfHhLz3N644Kt1Y-30" vertex="1">
          <mxGeometry x="120" y="-10" width="120" height="80" as="geometry" />
        </mxCell>
        <mxCell id="FsoMMtfHhLz3N644Kt1Y-17" value="" style="endArrow=block;html=1;shadow=0;sketch=0;fontFamily=UD デジタル 教科書体 NK-B;fontSize=16;fontColor=default;strokeColor=#616161;strokeWidth=4;startArrow=oval;startFill=1;endFill=1;curved=1;" parent="FsoMMtfHhLz3N644Kt1Y-30" edge="1">
          <mxGeometry width="50" height="50" relative="1" as="geometry">
            <mxPoint x="180" as="sourcePoint" />
            <mxPoint x="140" y="60" as="targetPoint" />
            <Array as="points">
              <mxPoint x="150" y="20" />
            </Array>
          </mxGeometry>
        </mxCell>
        <mxCell id="FsoMMtfHhLz3N644Kt1Y-18" value="" style="endArrow=block;html=1;shadow=0;sketch=0;fontFamily=UD デジタル 教科書体 NK-B;fontSize=16;fontColor=default;strokeColor=#616161;strokeWidth=4;startArrow=oval;startFill=1;endFill=1;curved=1;" parent="FsoMMtfHhLz3N644Kt1Y-30" edge="1">
          <mxGeometry width="50" height="50" relative="1" as="geometry">
            <mxPoint x="80" as="sourcePoint" />
            <mxPoint x="80" y="60" as="targetPoint" />
          </mxGeometry>
        </mxCell>
        <mxCell id="FsoMMtfHhLz3N644Kt1Y-19" value="" style="endArrow=block;html=1;shadow=0;sketch=0;fontFamily=UD デジタル 教科書体 NK-B;fontSize=16;fontColor=default;strokeColor=#616161;strokeWidth=4;startArrow=oval;startFill=1;endFill=1;curved=1;" parent="FsoMMtfHhLz3N644Kt1Y-30" edge="1">
          <mxGeometry width="50" height="50" relative="1" as="geometry">
            <mxPoint x="180" as="sourcePoint" />
            <mxPoint x="220" y="60" as="targetPoint" />
            <Array as="points">
              <mxPoint x="210" y="20" />
            </Array>
          </mxGeometry>
        </mxCell>
        <mxCell id="FsoMMtfHhLz3N644Kt1Y-20" value="" style="endArrow=block;html=1;shadow=0;sketch=0;fontFamily=UD デジタル 教科書体 NK-B;fontSize=16;fontColor=default;strokeColor=#616161;strokeWidth=4;startArrow=oval;startFill=1;endFill=1;curved=1;" parent="FsoMMtfHhLz3N644Kt1Y-30" edge="1">
          <mxGeometry width="50" height="50" relative="1" as="geometry">
            <mxPoint x="220" y="60" as="sourcePoint" />
            <mxPoint x="180" y="120" as="targetPoint" />
            <Array as="points">
              <mxPoint x="210" y="90" />
            </Array>
          </mxGeometry>
        </mxCell>
        <mxCell id="FsoMMtfHhLz3N644Kt1Y-21" value="" style="endArrow=block;html=1;shadow=0;sketch=0;fontFamily=UD デジタル 教科書体 NK-B;fontSize=16;fontColor=default;strokeColor=#616161;strokeWidth=4;startArrow=oval;startFill=1;endFill=1;curved=1;" parent="FsoMMtfHhLz3N644Kt1Y-30" edge="1">
          <mxGeometry width="50" height="50" relative="1" as="geometry">
            <mxPoint x="140" y="60" as="sourcePoint" />
            <mxPoint x="180" y="120" as="targetPoint" />
            <Array as="points">
              <mxPoint x="150" y="90" />
            </Array>
          </mxGeometry>
        </mxCell>
        <mxCell id="FsoMMtfHhLz3N644Kt1Y-22" value="" style="endArrow=block;html=1;shadow=0;sketch=0;fontFamily=UD デジタル 教科書体 NK-B;fontSize=16;fontColor=default;strokeColor=#616161;strokeWidth=4;startArrow=oval;startFill=1;endFill=1;curved=1;" parent="FsoMMtfHhLz3N644Kt1Y-30" edge="1">
          <mxGeometry width="50" height="50" relative="1" as="geometry">
            <mxPoint x="180" y="120" as="sourcePoint" />
            <mxPoint x="180" y="180" as="targetPoint" />
          </mxGeometry>
        </mxCell>
        <mxCell id="FsoMMtfHhLz3N644Kt1Y-23" value="" style="endArrow=block;html=1;shadow=0;sketch=0;fontFamily=UD デジタル 教科書体 NK-B;fontSize=16;fontColor=default;strokeColor=#616161;strokeWidth=4;startArrow=oval;startFill=1;endFill=1;curved=1;" parent="FsoMMtfHhLz3N644Kt1Y-30" edge="1">
          <mxGeometry width="50" height="50" relative="1" as="geometry">
            <mxPoint x="80" y="60" as="sourcePoint" />
            <mxPoint x="180" y="180" as="targetPoint" />
            <Array as="points">
              <mxPoint x="140" y="110" />
            </Array>
          </mxGeometry>
        </mxCell>
        <mxCell id="FsoMMtfHhLz3N644Kt1Y-24" value="" style="endArrow=block;html=1;shadow=0;sketch=0;fontFamily=UD デジタル 教科書体 NK-B;fontSize=16;fontColor=default;strokeColor=#616161;strokeWidth=4;startArrow=oval;startFill=1;endFill=1;curved=1;" parent="FsoMMtfHhLz3N644Kt1Y-30" edge="1">
          <mxGeometry width="50" height="50" relative="1" as="geometry">
            <mxPoint as="sourcePoint" />
            <mxPoint y="60" as="targetPoint" />
          </mxGeometry>
        </mxCell>
        <mxCell id="FsoMMtfHhLz3N644Kt1Y-25" value="" style="endArrow=block;html=1;shadow=0;sketch=0;fontFamily=UD デジタル 教科書体 NK-B;fontSize=16;fontColor=default;strokeColor=#616161;strokeWidth=4;startArrow=oval;startFill=1;endFill=1;curved=1;" parent="FsoMMtfHhLz3N644Kt1Y-30" edge="1">
          <mxGeometry width="50" height="50" relative="1" as="geometry">
            <mxPoint y="60" as="sourcePoint" />
            <mxPoint x="20" y="120" as="targetPoint" />
            <Array as="points">
              <mxPoint x="2" y="90" />
            </Array>
          </mxGeometry>
        </mxCell>
        <mxCell id="FsoMMtfHhLz3N644Kt1Y-26" value="" style="endArrow=block;html=1;shadow=0;sketch=0;fontFamily=UD デジタル 教科書体 NK-B;fontSize=16;fontColor=default;strokeColor=#616161;strokeWidth=4;startArrow=oval;startFill=1;endFill=1;curved=1;" parent="FsoMMtfHhLz3N644Kt1Y-30" edge="1">
          <mxGeometry width="50" height="50" relative="1" as="geometry">
            <mxPoint x="80" y="60" as="sourcePoint" />
            <mxPoint x="20" y="120" as="targetPoint" />
            <Array as="points">
              <mxPoint x="50" y="80" />
            </Array>
          </mxGeometry>
        </mxCell>
        <mxCell id="FsoMMtfHhLz3N644Kt1Y-27" value="" style="endArrow=block;html=1;shadow=0;sketch=0;fontFamily=UD デジタル 教科書体 NK-B;fontSize=16;fontColor=default;strokeColor=#616161;strokeWidth=4;startArrow=oval;startFill=1;endFill=1;curved=1;" parent="FsoMMtfHhLz3N644Kt1Y-30" edge="1">
          <mxGeometry width="50" height="50" relative="1" as="geometry">
            <mxPoint x="20" y="120" as="sourcePoint" />
            <mxPoint x="80" y="240" as="targetPoint" />
            <Array as="points">
              <mxPoint x="30" y="180" />
            </Array>
          </mxGeometry>
        </mxCell>
        <mxCell id="FsoMMtfHhLz3N644Kt1Y-28" value="" style="endArrow=block;html=1;shadow=0;sketch=0;fontFamily=UD デジタル 教科書体 NK-B;fontSize=16;fontColor=default;strokeColor=#616161;strokeWidth=4;startArrow=oval;startFill=1;endFill=1;curved=1;" parent="FsoMMtfHhLz3N644Kt1Y-30" edge="1">
          <mxGeometry width="50" height="50" relative="1" as="geometry">
            <mxPoint x="180" y="180" as="sourcePoint" />
            <mxPoint x="80" y="240" as="targetPoint" />
            <Array as="points">
              <mxPoint x="140" y="220" />
            </Array>
          </mxGeometry>
        </mxCell>
        <mxCell id="FsoMMtfHhLz3N644Kt1Y-29" value="" style="endArrow=none;html=1;rounded=1;shadow=0;sketch=0;fontFamily=UD デジタル 教科書体 NK-B;fontSize=16;fontColor=default;strokeColor=#9E464B;strokeWidth=4;startArrow=oval;startFill=1;endFill=0;" parent="FsoMMtfHhLz3N644Kt1Y-30" edge="1">
          <mxGeometry width="50" height="50" relative="1" as="geometry">
            <mxPoint x="80" y="240" as="sourcePoint" />
            <mxPoint x="82" y="244" as="targetPoint" />
          </mxGeometry>
        </mxCell>
        <mxCell id="FsoMMtfHhLz3N644Kt1Y-31" value="" style="endArrow=none;dashed=1;html=1;rounded=1;shadow=0;sketch=0;fontFamily=UD デジタル 教科書体 NK-B;fontSize=16;fontColor=default;strokeColor=#83A681;strokeWidth=4;startArrow=none;startFill=0;endFill=0;" parent="1" edge="1">
          <mxGeometry width="50" height="50" relative="1" as="geometry">
            <mxPoint x="40" y="320" as="sourcePoint" />
            <mxPoint x="320" y="320" as="targetPoint" />
          </mxGeometry>
        </mxCell>
        <mxCell id="FsoMMtfHhLz3N644Kt1Y-32" value="" style="endArrow=none;dashed=1;html=1;rounded=1;shadow=0;sketch=0;fontFamily=UD デジタル 教科書体 NK-B;fontSize=16;fontColor=default;strokeColor=#83A681;strokeWidth=4;startArrow=none;startFill=0;endFill=0;" parent="1" edge="1">
          <mxGeometry width="50" height="50" relative="1" as="geometry">
            <mxPoint x="40" y="440" as="sourcePoint" />
            <mxPoint x="320" y="440" as="targetPoint" />
          </mxGeometry>
        </mxCell>
        <mxCell id="FsoMMtfHhLz3N644Kt1Y-33" value="" style="endArrow=none;dashed=1;html=1;rounded=1;shadow=0;sketch=0;fontFamily=UD デジタル 教科書体 NK-B;fontSize=16;fontColor=default;strokeColor=#83A681;strokeWidth=4;startArrow=none;startFill=0;endFill=0;" parent="1" edge="1">
          <mxGeometry width="50" height="50" relative="1" as="geometry">
            <mxPoint x="40" y="500" as="sourcePoint" />
            <mxPoint x="320" y="500" as="targetPoint" />
          </mxGeometry>
        </mxCell>
        <mxCell id="FsoMMtfHhLz3N644Kt1Y-34" value="" style="endArrow=none;dashed=1;html=1;rounded=1;shadow=0;sketch=0;fontFamily=UD デジタル 教科書体 NK-B;fontSize=16;fontColor=default;strokeColor=#83A681;strokeWidth=4;startArrow=none;startFill=0;endFill=0;" parent="1" edge="1">
          <mxGeometry width="50" height="50" relative="1" as="geometry">
            <mxPoint x="40" y="560" as="sourcePoint" />
            <mxPoint x="320" y="560" as="targetPoint" />
          </mxGeometry>
        </mxCell>
        <mxCell id="FsoMMtfHhLz3N644Kt1Y-35" value="&lt;font style=&quot;font-size: 18px;&quot; face=&quot;UD デジタル 教科書体 NK-B&quot;&gt;SRPass.&lt;font color=&quot;#ad9c68&quot;&gt;renderPassEvent&lt;/font&gt;&lt;/font&gt;" style="text;html=1;align=center;verticalAlign=middle;resizable=0;points=[];autosize=1;strokeColor=none;fillColor=none;" parent="1" vertex="1">
          <mxGeometry x="350" y="285" width="260" height="40" as="geometry" />
        </mxCell>
        <mxCell id="FsoMMtfHhLz3N644Kt1Y-36" value="" style="endArrow=classic;html=1;shadow=0;sketch=0;fontFamily=UD デジタル 教科書体 NK-B;fontSize=16;fontColor=default;strokeColor=#616161;strokeWidth=1;curved=1;" parent="1" edge="1">
          <mxGeometry width="50" height="50" relative="1" as="geometry">
            <mxPoint x="367" y="310" as="sourcePoint" />
            <mxPoint x="316" y="320" as="targetPoint" />
            <Array as="points">
              <mxPoint x="340" y="320" />
            </Array>
          </mxGeometry>
        </mxCell>
        <mxCell id="FsoMMtfHhLz3N644Kt1Y-37" value="" style="endArrow=classic;html=1;shadow=0;sketch=0;fontFamily=UD デジタル 教科書体 NK-B;fontSize=16;fontColor=default;strokeColor=#616161;strokeWidth=1;curved=1;" parent="1" edge="1">
          <mxGeometry width="50" height="50" relative="1" as="geometry">
            <mxPoint x="367" y="310" as="sourcePoint" />
            <mxPoint x="316" y="440" as="targetPoint" />
            <Array as="points">
              <mxPoint x="370" y="440" />
            </Array>
          </mxGeometry>
        </mxCell>
        <mxCell id="FsoMMtfHhLz3N644Kt1Y-39" value="" style="endArrow=classic;html=1;shadow=0;sketch=0;fontFamily=UD デジタル 教科書体 NK-B;fontSize=16;fontColor=default;strokeColor=#616161;strokeWidth=1;curved=1;" parent="1" edge="1">
          <mxGeometry width="50" height="50" relative="1" as="geometry">
            <mxPoint x="367" y="310" as="sourcePoint" />
            <mxPoint x="316" y="500" as="targetPoint" />
            <Array as="points">
              <mxPoint x="367" y="500" />
            </Array>
          </mxGeometry>
        </mxCell>
        <mxCell id="FsoMMtfHhLz3N644Kt1Y-40" value="" style="endArrow=classic;html=1;shadow=0;sketch=0;fontFamily=UD デジタル 教科書体 NK-B;fontSize=16;fontColor=default;strokeColor=#616161;strokeWidth=1;curved=1;" parent="1" edge="1">
          <mxGeometry width="50" height="50" relative="1" as="geometry">
            <mxPoint x="367" y="310" as="sourcePoint" />
            <mxPoint x="316" y="560" as="targetPoint" />
            <Array as="points">
              <mxPoint x="367" y="560" />
            </Array>
          </mxGeometry>
        </mxCell>
        <mxCell id="FsoMMtfHhLz3N644Kt1Y-41" value="" style="endArrow=classic;html=1;shadow=0;sketch=0;fontFamily=UD デジタル 教科書体 NK-B;fontSize=16;fontColor=default;strokeColor=#616161;strokeWidth=1;rounded=1;" parent="1" edge="1">
          <mxGeometry width="50" height="50" relative="1" as="geometry">
            <mxPoint x="396" y="348" as="sourcePoint" />
            <mxPoint x="285" y="400" as="targetPoint" />
            <Array as="points">
              <mxPoint x="350" y="348" />
              <mxPoint x="350" y="400" />
            </Array>
          </mxGeometry>
        </mxCell>
        <mxCell id="FsoMMtfHhLz3N644Kt1Y-42" value="" style="endArrow=none;dashed=1;html=1;rounded=1;shadow=0;sketch=0;fontFamily=UD デジタル 教科書体 NK-B;fontSize=16;fontColor=default;strokeColor=#81AAFC;strokeWidth=3;startArrow=none;startFill=0;endFill=0;dashPattern=1 1;" parent="1" edge="1">
          <mxGeometry width="50" height="50" relative="1" as="geometry">
            <mxPoint x="180" y="330" as="sourcePoint" />
            <mxPoint x="300" y="330" as="targetPoint" />
          </mxGeometry>
        </mxCell>
        <mxCell id="FsoMMtfHhLz3N644Kt1Y-44" value="" style="endArrow=none;dashed=1;html=1;rounded=1;shadow=0;sketch=0;fontFamily=UD デジタル 教科書体 NK-B;fontSize=16;fontColor=default;strokeColor=#81AAFC;strokeWidth=3;startArrow=none;startFill=0;endFill=0;dashPattern=1 1;" parent="1" edge="1">
          <mxGeometry width="50" height="50" relative="1" as="geometry">
            <mxPoint x="180" y="410" as="sourcePoint" />
            <mxPoint x="300" y="410" as="targetPoint" />
          </mxGeometry>
        </mxCell>
        <mxCell id="FsoMMtfHhLz3N644Kt1Y-46" value="" style="endArrow=none;dashed=1;html=1;rounded=1;shadow=0;sketch=0;fontFamily=UD デジタル 教科書体 NK-B;fontSize=16;fontColor=default;strokeColor=#81AAFC;strokeWidth=3;startArrow=none;startFill=0;endFill=0;dashPattern=1 1;" parent="1" edge="1">
          <mxGeometry width="50" height="50" relative="1" as="geometry">
            <mxPoint x="120" y="350" as="sourcePoint" />
            <mxPoint x="160" y="350" as="targetPoint" />
          </mxGeometry>
        </mxCell>
        <mxCell id="FsoMMtfHhLz3N644Kt1Y-47" value="" style="endArrow=none;dashed=1;html=1;rounded=1;shadow=0;sketch=0;fontFamily=UD デジタル 教科書体 NK-B;fontSize=16;fontColor=default;strokeColor=#81AAFC;strokeWidth=3;startArrow=none;startFill=0;endFill=0;dashPattern=1 1;" parent="1" edge="1">
          <mxGeometry width="50" height="50" relative="1" as="geometry">
            <mxPoint x="120" y="390" as="sourcePoint" />
            <mxPoint x="160" y="390" as="targetPoint" />
          </mxGeometry>
        </mxCell>
        <mxCell id="FsoMMtfHhLz3N644Kt1Y-48" value="" style="endArrow=none;dashed=1;html=1;rounded=1;shadow=0;sketch=0;fontFamily=UD デジタル 教科書体 NK-B;fontSize=16;fontColor=default;strokeColor=#81AAFC;strokeWidth=3;startArrow=none;startFill=0;endFill=0;dashPattern=1 1;" parent="1" edge="1">
          <mxGeometry width="50" height="50" relative="1" as="geometry">
            <mxPoint x="120" y="410" as="sourcePoint" />
            <mxPoint x="160" y="410" as="targetPoint" />
          </mxGeometry>
        </mxCell>
        <mxCell id="FsoMMtfHhLz3N644Kt1Y-49" value="" style="endArrow=none;dashed=1;html=1;rounded=1;shadow=0;sketch=0;fontFamily=UD デジタル 教科書体 NK-B;fontSize=16;fontColor=default;strokeColor=#81AAFC;strokeWidth=3;startArrow=none;startFill=0;endFill=0;dashPattern=1 1;" parent="1" edge="1">
          <mxGeometry width="50" height="50" relative="1" as="geometry">
            <mxPoint x="40" y="330" as="sourcePoint" />
            <mxPoint x="80" y="330" as="targetPoint" />
          </mxGeometry>
        </mxCell>
        <mxCell id="FsoMMtfHhLz3N644Kt1Y-50" value="" style="endArrow=none;dashed=1;html=1;rounded=1;shadow=0;sketch=0;fontFamily=UD デジタル 教科書体 NK-B;fontSize=16;fontColor=default;strokeColor=#81AAFC;strokeWidth=3;startArrow=none;startFill=0;endFill=0;dashPattern=1 1;" parent="1" edge="1">
          <mxGeometry width="50" height="50" relative="1" as="geometry">
            <mxPoint x="40" y="410" as="sourcePoint" />
            <mxPoint x="80" y="410" as="targetPoint" />
          </mxGeometry>
        </mxCell>
        <mxCell id="FsoMMtfHhLz3N644Kt1Y-51" value="" style="endArrow=none;dashed=1;html=1;rounded=1;shadow=0;sketch=0;fontFamily=UD デジタル 教科書体 NK-B;fontSize=16;fontColor=default;strokeColor=#81AAFC;strokeWidth=3;startArrow=none;startFill=0;endFill=0;dashPattern=1 1;" parent="1" edge="1">
          <mxGeometry width="50" height="50" relative="1" as="geometry">
            <mxPoint x="120" y="330" as="sourcePoint" />
            <mxPoint x="160" y="330" as="targetPoint" />
          </mxGeometry>
        </mxCell>
        <mxCell id="FsoMMtfHhLz3N644Kt1Y-66" value="" style="endArrow=none;dashed=1;html=1;rounded=1;shadow=0;sketch=0;fontFamily=UD デジタル 教科書体 NK-B;fontSize=16;fontColor=default;strokeColor=#81AAFC;strokeWidth=3;startArrow=none;startFill=0;endFill=0;dashPattern=1 1;" parent="1" edge="1">
          <mxGeometry width="50" height="50" relative="1" as="geometry">
            <mxPoint x="60" y="470" as="sourcePoint" />
            <mxPoint x="100" y="470" as="targetPoint" />
          </mxGeometry>
        </mxCell>
        <mxCell id="FsoMMtfHhLz3N644Kt1Y-67" value="" style="endArrow=none;dashed=1;html=1;rounded=1;shadow=0;sketch=0;fontFamily=UD デジタル 教科書体 NK-B;fontSize=16;fontColor=default;strokeColor=#81AAFC;strokeWidth=3;startArrow=none;startFill=0;endFill=0;dashPattern=1 1;" parent="1" edge="1">
          <mxGeometry width="50" height="50" relative="1" as="geometry">
            <mxPoint x="60" y="450" as="sourcePoint" />
            <mxPoint x="100" y="450" as="targetPoint" />
          </mxGeometry>
        </mxCell>
        <mxCell id="FsoMMtfHhLz3N644Kt1Y-69" value="" style="endArrow=none;dashed=1;html=1;rounded=1;shadow=0;sketch=0;fontFamily=UD デジタル 教科書体 NK-B;fontSize=16;fontColor=default;strokeColor=#81AAFC;strokeWidth=3;startArrow=none;startFill=0;endFill=0;dashPattern=1 1;" parent="1" edge="1">
          <mxGeometry width="50" height="50" relative="1" as="geometry">
            <mxPoint x="220" y="470" as="sourcePoint" />
            <mxPoint x="260" y="470" as="targetPoint" />
          </mxGeometry>
        </mxCell>
        <mxCell id="FsoMMtfHhLz3N644Kt1Y-70" value="" style="endArrow=none;dashed=1;html=1;rounded=1;shadow=0;sketch=0;fontFamily=UD デジタル 教科書体 NK-B;fontSize=16;fontColor=default;strokeColor=#81AAFC;strokeWidth=3;startArrow=none;startFill=0;endFill=0;dashPattern=1 1;" parent="1" edge="1">
          <mxGeometry width="50" height="50" relative="1" as="geometry">
            <mxPoint x="220" y="450" as="sourcePoint" />
            <mxPoint x="260" y="450" as="targetPoint" />
          </mxGeometry>
        </mxCell>
        <mxCell id="FsoMMtfHhLz3N644Kt1Y-72" value="" style="endArrow=none;dashed=1;html=1;rounded=1;shadow=0;sketch=0;fontFamily=UD デジタル 教科書体 NK-B;fontSize=16;fontColor=default;strokeColor=#81AAFC;strokeWidth=3;startArrow=none;startFill=0;endFill=0;dashPattern=1 1;" parent="1" edge="1">
          <mxGeometry width="50" height="50" relative="1" as="geometry">
            <mxPoint x="220" y="530" as="sourcePoint" />
            <mxPoint x="260" y="530" as="targetPoint" />
          </mxGeometry>
        </mxCell>
        <mxCell id="FsoMMtfHhLz3N644Kt1Y-73" value="" style="endArrow=none;dashed=1;html=1;rounded=1;shadow=0;sketch=0;fontFamily=UD デジタル 教科書体 NK-B;fontSize=16;fontColor=default;strokeColor=#81AAFC;strokeWidth=3;startArrow=none;startFill=0;endFill=0;dashPattern=1 1;" parent="1" edge="1">
          <mxGeometry width="50" height="50" relative="1" as="geometry">
            <mxPoint x="220" y="510" as="sourcePoint" />
            <mxPoint x="260" y="510" as="targetPoint" />
          </mxGeometry>
        </mxCell>
        <mxCell id="FsoMMtfHhLz3N644Kt1Y-75" value="" style="endArrow=none;dashed=1;html=1;rounded=1;shadow=0;sketch=0;fontFamily=UD デジタル 教科書体 NK-B;fontSize=16;fontColor=default;strokeColor=#81AAFC;strokeWidth=3;startArrow=none;startFill=0;endFill=0;dashPattern=1 1;" parent="1" edge="1">
          <mxGeometry width="50" height="50" relative="1" as="geometry">
            <mxPoint x="120" y="590" as="sourcePoint" />
            <mxPoint x="160" y="590" as="targetPoint" />
          </mxGeometry>
        </mxCell>
        <mxCell id="FsoMMtfHhLz3N644Kt1Y-76" value="" style="endArrow=none;dashed=1;html=1;rounded=1;shadow=0;sketch=0;fontFamily=UD デジタル 教科書体 NK-B;fontSize=16;fontColor=default;strokeColor=#81AAFC;strokeWidth=3;startArrow=none;startFill=0;endFill=0;dashPattern=1 1;" parent="1" edge="1">
          <mxGeometry width="50" height="50" relative="1" as="geometry">
            <mxPoint x="120" y="570" as="sourcePoint" />
            <mxPoint x="160" y="570" as="targetPoint" />
          </mxGeometry>
        </mxCell>
        <mxCell id="FsoMMtfHhLz3N644Kt1Y-78" value="" style="endArrow=none;html=1;shadow=0;sketch=0;fontFamily=UD デジタル 教科書体 NK-B;fontSize=16;fontColor=default;strokeColor=#616161;strokeWidth=1;startArrow=none;startFill=0;dashed=1;dashPattern=1 1;rounded=1;endFill=0;" parent="1" edge="1">
          <mxGeometry width="50" height="50" relative="1" as="geometry">
            <mxPoint x="160" y="400" as="sourcePoint" />
            <mxPoint x="160" y="340" as="targetPoint" />
            <Array as="points">
              <mxPoint x="170" y="400" />
              <mxPoint x="170" y="340" />
              <mxPoint x="160" y="340" />
            </Array>
          </mxGeometry>
        </mxCell>
        <mxCell id="FsoMMtfHhLz3N644Kt1Y-79" value="" style="endArrow=none;html=1;shadow=0;sketch=0;fontFamily=UD デジタル 教科書体 NK-B;fontSize=16;fontColor=default;strokeColor=#616161;strokeWidth=1;startArrow=none;startFill=0;dashed=1;dashPattern=1 1;rounded=1;endFill=0;" parent="1" edge="1">
          <mxGeometry width="50" height="50" relative="1" as="geometry">
            <mxPoint x="120" y="580" as="sourcePoint" />
            <mxPoint x="40" y="370" as="targetPoint" />
            <Array as="points">
              <mxPoint x="30" y="580" />
              <mxPoint x="30" y="370" />
              <mxPoint x="40" y="370" />
            </Array>
          </mxGeometry>
        </mxCell>
        <mxCell id="FsoMMtfHhLz3N644Kt1Y-80" value="" style="endArrow=none;html=1;shadow=0;sketch=0;fontFamily=UD デジタル 教科書体 NK-B;fontSize=16;fontColor=default;strokeColor=#616161;strokeWidth=1;startArrow=none;startFill=0;dashed=1;dashPattern=1 1;rounded=1;endFill=0;entryX=1;entryY=0.5;entryDx=0;entryDy=0;" parent="1" target="FsoMMtfHhLz3N644Kt1Y-65" edge="1">
          <mxGeometry width="50" height="50" relative="1" as="geometry">
            <mxPoint x="380" y="330" as="sourcePoint" />
            <mxPoint x="400" y="440.5" as="targetPoint" />
            <Array as="points">
              <mxPoint x="340" y="330" />
              <mxPoint x="340" y="455" />
              <mxPoint x="110" y="455" />
              <mxPoint x="110" y="460" />
            </Array>
          </mxGeometry>
        </mxCell>
        <mxCell id="FsoMMtfHhLz3N644Kt1Y-81" value="" style="endArrow=none;html=1;shadow=0;sketch=0;fontFamily=UD デジタル 教科書体 NK-B;fontSize=16;fontColor=default;strokeColor=#616161;strokeWidth=1;startArrow=none;startFill=0;dashed=1;dashPattern=1 1;rounded=1;endFill=0;entryX=1;entryY=0.5;entryDx=0;entryDy=0;" parent="1" target="FsoMMtfHhLz3N644Kt1Y-52" edge="1">
          <mxGeometry width="50" height="50" relative="1" as="geometry">
            <mxPoint x="380" y="330" as="sourcePoint" />
            <mxPoint x="410" y="320" as="targetPoint" />
            <Array as="points">
              <mxPoint x="340" y="330" />
              <mxPoint x="340" y="370" />
            </Array>
          </mxGeometry>
        </mxCell>
        <mxCell id="FsoMMtfHhLz3N644Kt1Y-82" value="&lt;font style=&quot;font-size: 16px;&quot; face=&quot;UD デジタル 教科書体 NK-B&quot;&gt;rendererFeatures[i].&lt;font color=&quot;#ad9c68&quot;&gt;AddRendererPasses&lt;/font&gt;(..); ⟦～⟧❰renderer.&lt;font color=&quot;#ad9c68&quot;&gt;EnqueuePass&lt;/font&gt;(&lt;font color=&quot;#81aafc&quot;&gt;sRPass&lt;/font&gt;);❱&lt;/font&gt;" style="text;html=1;align=center;verticalAlign=middle;resizable=0;points=[];autosize=1;strokeColor=none;fillColor=none;" parent="1" vertex="1">
          <mxGeometry x="365" y="310" width="710" height="30" as="geometry" />
        </mxCell>
        <mxCell id="FsoMMtfHhLz3N644Kt1Y-83" value="" style="endArrow=none;html=1;shadow=0;sketch=0;fontFamily=UD デジタル 教科書体 NK-B;fontSize=16;fontColor=default;strokeColor=#616161;strokeWidth=1;startArrow=none;startFill=0;dashed=1;dashPattern=1 1;rounded=1;endFill=0;" parent="1" edge="1">
          <mxGeometry width="50" height="50" relative="1" as="geometry">
            <mxPoint x="380" y="330" as="sourcePoint" />
            <mxPoint x="170" y="360" as="targetPoint" />
            <Array as="points">
              <mxPoint x="340" y="330" />
              <mxPoint x="340" y="360" />
            </Array>
          </mxGeometry>
        </mxCell>
        <mxCell id="FsoMMtfHhLz3N644Kt1Y-84" value="" style="endArrow=none;html=1;shadow=0;sketch=0;fontFamily=UD デジタル 教科書体 NK-B;fontSize=16;fontColor=default;strokeColor=#616161;strokeWidth=1;startArrow=none;startFill=0;dashed=1;dashPattern=1 1;rounded=1;endFill=0;" parent="1" edge="1">
          <mxGeometry width="50" height="50" relative="1" as="geometry">
            <mxPoint x="380" y="330" as="sourcePoint" />
            <mxPoint x="30" y="430" as="targetPoint" />
            <Array as="points">
              <mxPoint x="340" y="330" />
              <mxPoint x="340" y="430" />
            </Array>
          </mxGeometry>
        </mxCell>
        <mxCell id="FsoMMtfHhLz3N644Kt1Y-85" value="" style="endArrow=none;html=1;shadow=0;sketch=0;fontFamily=UD デジタル 教科書体 NK-B;fontSize=16;fontColor=default;strokeColor=#616161;strokeWidth=1;startArrow=none;startFill=0;dashed=1;dashPattern=1 1;rounded=1;endFill=0;entryX=1;entryY=0.5;entryDx=0;entryDy=0;" parent="1" target="FsoMMtfHhLz3N644Kt1Y-68" edge="1">
          <mxGeometry width="50" height="50" relative="1" as="geometry">
            <mxPoint x="380" y="330" as="sourcePoint" />
            <mxPoint x="410" y="450.5" as="targetPoint" />
            <Array as="points">
              <mxPoint x="340" y="330" />
              <mxPoint x="340" y="460" />
            </Array>
          </mxGeometry>
        </mxCell>
        <mxCell id="FsoMMtfHhLz3N644Kt1Y-86" value="" style="endArrow=none;html=1;shadow=0;sketch=0;fontFamily=UD デジタル 教科書体 NK-B;fontSize=16;fontColor=default;strokeColor=#616161;strokeWidth=1;startArrow=none;startFill=0;dashed=1;dashPattern=1 1;rounded=1;endFill=0;entryX=1;entryY=0.5;entryDx=0;entryDy=0;" parent="1" target="FsoMMtfHhLz3N644Kt1Y-71" edge="1">
          <mxGeometry width="50" height="50" relative="1" as="geometry">
            <mxPoint x="380" y="330" as="sourcePoint" />
            <mxPoint x="410" y="450.5" as="targetPoint" />
            <Array as="points">
              <mxPoint x="340" y="330" />
              <mxPoint x="340" y="520" />
            </Array>
          </mxGeometry>
        </mxCell>
        <mxCell id="FsoMMtfHhLz3N644Kt1Y-87" value="&lt;font style=&quot;font-size: 14px;&quot; face=&quot;UD デジタル 教科書体 NK-B&quot;&gt;⟦～⟧❰&lt;font color=&quot;#9e464b&quot;&gt;RenderGraph&lt;/font&gt;.&lt;font color=&quot;#ad9c68&quot;&gt;AddRenderPass&lt;/font&gt;&amp;lt;.&amp;gt;(..){builder.&lt;font color=&quot;#ad9c68&quot;&gt;SetRenderFunc&lt;/font&gt;(..)}❱&lt;/font&gt;" style="text;html=1;align=center;verticalAlign=middle;resizable=0;points=[];autosize=1;strokeColor=none;fillColor=none;" parent="1" vertex="1">
          <mxGeometry x="384" y="335" width="530" height="30" as="geometry" />
        </mxCell>
        <mxCell id="FsoMMtfHhLz3N644Kt1Y-88" value="" style="endArrow=none;html=1;rounded=1;shadow=0;sketch=0;fontFamily=UD デジタル 教科書体 NK-B;fontSize=16;fontColor=default;strokeColor=#9E464B;strokeWidth=4;startArrow=oval;startFill=1;endFill=0;" parent="1" edge="1">
          <mxGeometry width="50" height="50" relative="1" as="geometry">
            <mxPoint x="240" y="520" as="sourcePoint" />
            <mxPoint x="242" y="524" as="targetPoint" />
          </mxGeometry>
        </mxCell>
        <mxCell id="FsoMMtfHhLz3N644Kt1Y-89" value="" style="endArrow=none;html=1;rounded=1;shadow=0;sketch=0;fontFamily=UD デジタル 教科書体 NK-B;fontSize=16;fontColor=default;strokeColor=#9E464B;strokeWidth=4;startArrow=oval;startFill=1;endFill=0;" parent="1" edge="1">
          <mxGeometry width="50" height="50" relative="1" as="geometry">
            <mxPoint x="240" y="460" as="sourcePoint" />
            <mxPoint x="242" y="464" as="targetPoint" />
          </mxGeometry>
        </mxCell>
        <mxCell id="FsoMMtfHhLz3N644Kt1Y-90" value="" style="endArrow=none;html=1;rounded=1;shadow=0;sketch=0;fontFamily=UD デジタル 教科書体 NK-B;fontSize=16;fontColor=default;strokeColor=#9E464B;strokeWidth=4;startArrow=oval;startFill=1;endFill=0;" parent="1" edge="1">
          <mxGeometry width="50" height="50" relative="1" as="geometry">
            <mxPoint x="80" y="460" as="sourcePoint" />
            <mxPoint x="82" y="464" as="targetPoint" />
          </mxGeometry>
        </mxCell>
        <mxCell id="FsoMMtfHhLz3N644Kt1Y-91" value="" style="endArrow=none;html=1;rounded=1;shadow=0;sketch=0;fontFamily=UD デジタル 教科書体 NK-B;fontSize=16;fontColor=default;strokeColor=#9E464B;strokeWidth=4;startArrow=oval;startFill=1;endFill=0;" parent="1" edge="1">
          <mxGeometry width="50" height="50" relative="1" as="geometry">
            <mxPoint x="60" y="400" as="sourcePoint" />
            <mxPoint x="62" y="404" as="targetPoint" />
          </mxGeometry>
        </mxCell>
        <mxCell id="FsoMMtfHhLz3N644Kt1Y-92" value="" style="endArrow=none;html=1;rounded=1;shadow=0;sketch=0;fontFamily=UD デジタル 教科書体 NK-B;fontSize=16;fontColor=default;strokeColor=#9E464B;strokeWidth=4;startArrow=oval;startFill=1;endFill=0;" parent="1" edge="1">
          <mxGeometry width="50" height="50" relative="1" as="geometry">
            <mxPoint x="60" y="340" as="sourcePoint" />
            <mxPoint x="62" y="344" as="targetPoint" />
          </mxGeometry>
        </mxCell>
        <mxCell id="FsoMMtfHhLz3N644Kt1Y-93" value="" style="endArrow=none;html=1;rounded=1;shadow=0;sketch=0;fontFamily=UD デジタル 教科書体 NK-B;fontSize=16;fontColor=default;strokeColor=#9E464B;strokeWidth=4;startArrow=oval;startFill=1;endFill=0;" parent="1" edge="1">
          <mxGeometry width="50" height="50" relative="1" as="geometry">
            <mxPoint x="140" y="340" as="sourcePoint" />
            <mxPoint x="142" y="344" as="targetPoint" />
          </mxGeometry>
        </mxCell>
        <mxCell id="FsoMMtfHhLz3N644Kt1Y-94" value="" style="endArrow=none;html=1;rounded=1;shadow=0;sketch=0;fontFamily=UD デジタル 教科書体 NK-B;fontSize=16;fontColor=default;strokeColor=#9E464B;strokeWidth=4;startArrow=oval;startFill=1;endFill=0;" parent="1" edge="1">
          <mxGeometry width="50" height="50" relative="1" as="geometry">
            <mxPoint x="140" y="400" as="sourcePoint" />
            <mxPoint x="142" y="404" as="targetPoint" />
          </mxGeometry>
        </mxCell>
        <mxCell id="FsoMMtfHhLz3N644Kt1Y-95" value="" style="endArrow=none;html=1;rounded=1;shadow=0;sketch=0;fontFamily=UD デジタル 教科書体 NK-B;fontSize=16;fontColor=default;strokeColor=#9E464B;strokeWidth=4;startArrow=oval;startFill=1;endFill=0;" parent="1" edge="1">
          <mxGeometry width="50" height="50" relative="1" as="geometry">
            <mxPoint x="200" y="400" as="sourcePoint" />
            <mxPoint x="202" y="404" as="targetPoint" />
          </mxGeometry>
        </mxCell>
        <mxCell id="FsoMMtfHhLz3N644Kt1Y-96" value="" style="endArrow=none;html=1;rounded=1;shadow=0;sketch=0;fontFamily=UD デジタル 教科書体 NK-B;fontSize=16;fontColor=default;strokeColor=#9E464B;strokeWidth=4;startArrow=oval;startFill=1;endFill=0;" parent="1" edge="1">
          <mxGeometry width="50" height="50" relative="1" as="geometry">
            <mxPoint x="280" y="400" as="sourcePoint" />
            <mxPoint x="282" y="404" as="targetPoint" />
          </mxGeometry>
        </mxCell>
        <mxCell id="FsoMMtfHhLz3N644Kt1Y-97" value="" style="endArrow=none;html=1;rounded=1;shadow=0;sketch=0;fontFamily=UD デジタル 教科書体 NK-B;fontSize=16;fontColor=default;strokeColor=#9E464B;strokeWidth=4;startArrow=oval;startFill=1;endFill=0;" parent="1" edge="1">
          <mxGeometry width="50" height="50" relative="1" as="geometry">
            <mxPoint x="240" y="340" as="sourcePoint" />
            <mxPoint x="242" y="344" as="targetPoint" />
          </mxGeometry>
        </mxCell>
        <mxCell id="FsoMMtfHhLz3N644Kt1Y-98" value="" style="endArrow=block;html=1;shadow=0;sketch=0;fontFamily=UD デジタル 教科書体 NK-B;fontSize=16;fontColor=default;strokeColor=#616161;strokeWidth=1;startArrow=diamond;startFill=1;endFill=1;curved=1;" parent="1" edge="1">
          <mxGeometry width="50" height="50" relative="1" as="geometry">
            <mxPoint x="997" y="318" as="sourcePoint" />
            <mxPoint x="596" y="305" as="targetPoint" />
            <Array as="points">
              <mxPoint x="950" y="270" />
            </Array>
          </mxGeometry>
        </mxCell>
        <mxCell id="FsoMMtfHhLz3N644Kt1Y-99" value="&lt;font face=&quot;UD デジタル 教科書体 NK-B&quot;&gt;&lt;font color=&quot;#ad9c68&quot;&gt;RecordRenderGraph&lt;/font&gt;(rG, frameData)&lt;/font&gt;" style="text;html=1;align=center;verticalAlign=middle;resizable=0;points=[];autosize=1;strokeColor=none;fillColor=none;" parent="1" vertex="1">
          <mxGeometry x="929" y="340" width="250" height="30" as="geometry" />
        </mxCell>
        <mxCell id="FsoMMtfHhLz3N644Kt1Y-100" value="" style="endArrow=block;html=1;rounded=1;shadow=0;sketch=0;fontFamily=UD デジタル 教科書体 NK-B;fontSize=16;fontColor=default;strokeColor=#616161;strokeWidth=1;startArrow=diamond;startFill=1;endFill=1;" parent="1" edge="1">
          <mxGeometry width="50" height="50" relative="1" as="geometry">
            <mxPoint x="1010" y="330" as="sourcePoint" />
            <mxPoint x="1010" y="350" as="targetPoint" />
          </mxGeometry>
        </mxCell>
        <mxCell id="FsoMMtfHhLz3N644Kt1Y-103" value="" style="endArrow=classic;html=1;shadow=0;sketch=0;fontFamily=UD デジタル 教科書体 NK-B;fontSize=16;fontColor=default;strokeColor=#616161;strokeWidth=1;rounded=1;" parent="1" edge="1">
          <mxGeometry width="50" height="50" relative="1" as="geometry">
            <mxPoint x="397" y="348" as="sourcePoint" />
            <mxPoint x="245" y="340" as="targetPoint" />
            <Array as="points">
              <mxPoint x="270" y="348" />
              <mxPoint x="260" y="340" />
            </Array>
          </mxGeometry>
        </mxCell>
        <mxCell id="FsoMMtfHhLz3N644Kt1Y-104" value="" style="endArrow=classic;html=1;shadow=0;sketch=0;fontFamily=UD デジタル 教科書体 NK-B;fontSize=16;fontColor=default;strokeColor=#616161;strokeWidth=1;rounded=1;" parent="1" edge="1">
          <mxGeometry width="50" height="50" relative="1" as="geometry">
            <mxPoint x="397" y="348" as="sourcePoint" />
            <mxPoint x="205" y="400" as="targetPoint" />
            <Array as="points">
              <mxPoint x="350" y="348" />
              <mxPoint x="350" y="380" />
              <mxPoint x="220" y="380" />
              <mxPoint x="220" y="400" />
            </Array>
          </mxGeometry>
        </mxCell>
        <mxCell id="FsoMMtfHhLz3N644Kt1Y-105" value="&lt;font color=&quot;#ad9c68&quot; style=&quot;font-size: 16px;&quot; face=&quot;UD デジタル 教科書体 NK-B&quot;&gt;CommandBuffer&lt;/font&gt;" style="text;html=1;align=center;verticalAlign=middle;resizable=0;points=[];autosize=1;strokeColor=none;fillColor=none;" parent="1" vertex="1">
          <mxGeometry x="540" y="360" width="160" height="30" as="geometry" />
        </mxCell>
        <mxCell id="FsoMMtfHhLz3N644Kt1Y-106" value="" style="endArrow=block;html=1;shadow=0;sketch=0;fontFamily=UD デジタル 教科書体 NK-B;fontSize=16;fontColor=default;strokeColor=#616161;strokeWidth=1;startArrow=diamond;startFill=1;endFill=1;curved=1;" parent="1" edge="1">
          <mxGeometry width="50" height="50" relative="1" as="geometry">
            <mxPoint x="942" y="355" as="sourcePoint" />
            <mxPoint x="903" y="350" as="targetPoint" />
            <Array as="points">
              <mxPoint x="919" y="350" />
            </Array>
          </mxGeometry>
        </mxCell>
        <mxCell id="FsoMMtfHhLz3N644Kt1Y-107" value="" style="endArrow=block;html=1;shadow=0;sketch=0;fontFamily=UD デジタル 教科書体 NK-B;fontSize=16;fontColor=default;strokeColor=#616161;strokeWidth=1;startArrow=diamond;startFill=1;endFill=1;curved=1;" parent="1" edge="1">
          <mxGeometry width="50" height="50" relative="1" as="geometry">
            <mxPoint x="770" y="354" as="sourcePoint" />
            <mxPoint x="687" y="376" as="targetPoint" />
            <Array as="points">
              <mxPoint x="760" y="376" />
            </Array>
          </mxGeometry>
        </mxCell>
        <mxCell id="FsoMMtfHhLz3N644Kt1Y-108" value="&lt;font style=&quot;font-size: 14px;&quot; face=&quot;UD デジタル 教科書体 NK-B&quot;&gt;cmd.Copy⟪Buffer¦Texture⟫(..);&lt;br&gt;cmd.ClearRenderTarget(..);&lt;br&gt;cmd.DispatchCompute(..);&lt;br&gt;cmd.Draw⟪Mesh¦Procedural¦Renderer⟫(..);&lt;br&gt;cmd.DispatchRays(..);&lt;br&gt;cmd.GenerateMips(..);cmd.ResolveAntiAliasedSurface(..);&lt;br&gt;cmd.&lt;font style=&quot;font-size: 14px;&quot; color=&quot;#ad9c68&quot;&gt;DrawRendererList&lt;/font&gt;(..);&lt;br&gt;&lt;/font&gt;" style="text;html=1;align=left;verticalAlign=middle;resizable=0;points=[];autosize=1;strokeColor=none;fillColor=none;" parent="1" vertex="1">
          <mxGeometry x="540" y="377" width="450" height="130" as="geometry" />
        </mxCell>
        <mxCell id="FsoMMtfHhLz3N644Kt1Y-132" value="" style="endArrow=none;html=1;rounded=1;shadow=0;sketch=0;fontFamily=UD デジタル 教科書体 NK-B;fontSize=16;fontColor=default;strokeColor=#d79b00;strokeWidth=3;endFill=0;fillColor=#ffe6cc;" parent="1" edge="1">
          <mxGeometry width="50" height="50" relative="1" as="geometry">
            <mxPoint x="1130" y="270" as="sourcePoint" />
            <mxPoint x="1130" y="270" as="targetPoint" />
            <Array as="points">
              <mxPoint x="1180" y="270" />
              <mxPoint x="1180" y="510" />
              <mxPoint x="510" y="510" />
              <mxPoint x="510" y="600" />
              <mxPoint x="20" y="600" />
              <mxPoint x="20" y="270" />
              <mxPoint x="580" y="270" />
            </Array>
          </mxGeometry>
        </mxCell>
        <mxCell id="FsoMMtfHhLz3N644Kt1Y-133" value="&lt;font style=&quot;font-size: 24px;&quot;&gt;Renderer&lt;/font&gt;" style="rounded=1;whiteSpace=wrap;html=1;fillColor=#ffe6cc;strokeColor=#d79b00;sketch=1;strokeWidth=2;shadow=0;fontFamily=UD デジタル 教科書体 NK-B;fontSize=16;arcSize=42;" parent="1" vertex="1">
          <mxGeometry x="20" y="270" width="140" height="40" as="geometry" />
        </mxCell>
        <mxCell id="sbP9O8HD0FoWGV81-NIt-2" value="renderer.sortingLayer⟪Name¦ID⟫" style="rounded=1;whiteSpace=wrap;html=1;fillColor=#dae8fc;strokeColor=#6c8ebf;sketch=1;strokeWidth=2;shadow=0;fontFamily=UD デジタル 教科書体 NK-B;fontSize=16;arcSize=4;verticalAlign=top;" parent="1" vertex="1">
          <mxGeometry x="540" y="562" width="420" height="270" as="geometry" />
        </mxCell>
        <mxCell id="sbP9O8HD0FoWGV81-NIt-3" value="renderer.sortingOrder" style="rounded=1;whiteSpace=wrap;html=1;fillColor=#dae8fc;strokeColor=#6c8ebf;sketch=1;strokeWidth=2;shadow=0;fontFamily=UD デジタル 教科書体 NK-B;fontSize=16;arcSize=4;verticalAlign=top;" parent="1" vertex="1">
          <mxGeometry x="550.63" y="592" width="399.38" height="230" as="geometry" />
        </mxCell>
        <mxCell id="sbP9O8HD0FoWGV81-NIt-4" value="material.renderQueue" style="rounded=1;whiteSpace=wrap;html=1;fillColor=#f8cecc;strokeColor=#b85450;sketch=1;strokeWidth=2;shadow=0;fontFamily=UD デジタル 教科書体 NK-B;fontSize=16;verticalAlign=top;arcSize=6;" parent="1" vertex="1">
          <mxGeometry x="561.25" y="622" width="378.75" height="190" as="geometry" />
        </mxCell>
        <mxCell id="sbP9O8HD0FoWGV81-NIt-5" value="renderer.rendererPriority" style="rounded=1;whiteSpace=wrap;html=1;fillColor=#d5e8d4;strokeColor=#82b366;sketch=1;strokeWidth=2;shadow=0;fontFamily=UD デジタル 教科書体 NK-B;fontSize=16;verticalAlign=top;arcSize=9;" parent="1" vertex="1">
          <mxGeometry x="571.88" y="652" width="358.13" height="150" as="geometry" />
        </mxCell>
        <mxCell id="sbP9O8HD0FoWGV81-NIt-6" value="SortingCriteria.⟪⟦Front⟧To⟦Back⟧⟫" style="rounded=1;whiteSpace=wrap;html=1;sketch=1;strokeWidth=2;shadow=0;fontFamily=UD デジタル 教科書体 NK-B;fontSize=16;verticalAlign=top;fillColor=#f5f5f5;strokeColor=#666666;fontColor=#333333;" parent="1" vertex="1">
          <mxGeometry x="582.5" y="682" width="337.5" height="110" as="geometry" />
        </mxCell>
        <mxCell id="5NddNwDhX1T2ehnvBwcV-1" value="&lt;div style=&quot;color: rgb(212, 212, 212); background-color: rgb(30, 30, 30); font-family: Consolas, &amp;quot;Courier New&amp;quot;, monospace; font-size: 14px; line-height: 19px;&quot;&gt;&lt;br&gt;&lt;/div&gt;" style="text;html=1;align=center;verticalAlign=middle;resizable=0;points=[];autosize=1;strokeColor=none;fillColor=none;" parent="1" vertex="1">
          <mxGeometry x="1280" y="750" width="20" height="30" as="geometry" />
        </mxCell>
        <mxCell id="a92dV3mP_Hm6rxxN4uw9-1" value="OptimizeStateChanges" style="rounded=1;whiteSpace=wrap;html=1;fillColor=#f5f5f5;strokeColor=#666666;sketch=1;strokeWidth=2;shadow=0;fontFamily=UD デジタル 教科書体 NK-B;fontSize=16;verticalAlign=top;arcSize=19;fontColor=#333333;" vertex="1" parent="1">
          <mxGeometry x="590" y="712" width="320" height="70" as="geometry" />
        </mxCell>
        <mxCell id="sbP9O8HD0FoWGV81-NIt-11" value="&lt;p style=&quot;line-height: 140%;&quot;&gt;&lt;font style=&quot;font-size: 15px;&quot;&gt;Renderer Component&lt;/font&gt;&lt;/p&gt;" style="rounded=1;whiteSpace=wrap;html=1;fillColor=#ffe6cc;strokeColor=#d79b00;sketch=1;strokeWidth=2;shadow=0;fontFamily=UD デジタル 教科書体 NK-B;fontSize=16;verticalAlign=middle;" parent="1" vertex="1">
          <mxGeometry x="600" y="742" width="300" height="30" as="geometry" />
        </mxCell>
        <mxCell id="a92dV3mP_Hm6rxxN4uw9-2" value="&lt;font color=&quot;#81aafc&quot; style=&quot;font-size: 16px;&quot; face=&quot;UD デジタル 教科書体 NK-B&quot;&gt;SortingCriteria&lt;/font&gt;" style="text;html=1;align=center;verticalAlign=middle;resizable=0;points=[];autosize=1;strokeColor=none;fillColor=none;" vertex="1" parent="1">
          <mxGeometry x="670" y="506" width="150" height="30" as="geometry" />
        </mxCell>
      </root>
    </mxGraphModel>
  </diagram>
</mxfile>
